<mxfile host="app.diagrams.net" modified="2023-05-07T14:45:50.101Z" agent="Mozilla/5.0 (Windows NT 10.0; Win64; x64) AppleWebKit/537.36 (KHTML, like Gecko) Chrome/112.0.0.0 Safari/537.36 Edg/112.0.1722.68" etag="snAZdsD_lg6db0wK0C6r" version="21.2.9" type="github">
  <diagram id="6I0OCvxSQrVGMHxT2VVA" name="Page-1">
    <mxGraphModel dx="1415" dy="780" grid="1" gridSize="10" guides="1" tooltips="1" connect="1" arrows="1" fold="1" page="1" pageScale="1" pageWidth="850" pageHeight="1100" math="0" shadow="0">
      <root>
        <mxCell id="0" />
        <mxCell id="1" parent="0" />
        <mxCell id="dKdSaXE48SgPbhcamS2K-30" value="" style="whiteSpace=wrap;html=1;strokeColor=none;strokeWidth=1;fillColor=#f5f5f5;fontSize=14;" parent="1" vertex="1">
          <mxGeometry x="194" y="670" width="1075" height="300" as="geometry" />
        </mxCell>
        <mxCell id="dKdSaXE48SgPbhcamS2K-31" value="" style="whiteSpace=wrap;html=1;strokeColor=none;strokeWidth=1;fillColor=#f5f5f5;fontSize=14;" parent="1" vertex="1">
          <mxGeometry x="194" y="500" width="1075" height="160" as="geometry" />
        </mxCell>
        <mxCell id="dKdSaXE48SgPbhcamS2K-32" value="" style="whiteSpace=wrap;html=1;strokeColor=none;strokeWidth=1;fillColor=#f5f5f5;fontSize=14;" parent="1" vertex="1">
          <mxGeometry x="184" y="330" width="1086" height="140" as="geometry" />
        </mxCell>
        <mxCell id="wChZqM1H21V13JIH8exe-10" style="edgeStyle=orthogonalEdgeStyle;rounded=0;orthogonalLoop=1;jettySize=auto;html=1;exitX=0.5;exitY=0;exitDx=0;exitDy=0;entryX=0.5;entryY=1;entryDx=0;entryDy=0;" edge="1" parent="1" source="wChZqM1H21V13JIH8exe-5" target="wChZqM1H21V13JIH8exe-7">
          <mxGeometry relative="1" as="geometry" />
        </mxCell>
        <mxCell id="wChZqM1H21V13JIH8exe-5" value="" style="rounded=1;whiteSpace=wrap;html=1;glass=0;" vertex="1" parent="1">
          <mxGeometry x="297.25" y="517.5" width="688.5" height="125" as="geometry" />
        </mxCell>
        <mxCell id="dKdSaXE48SgPbhcamS2K-51" value="Module" style="shape=component;align=center;fillColor=#99ffff;gradientColor=none;fontSize=15;" parent="1" vertex="1">
          <mxGeometry x="761.5" y="540" width="185" height="80" as="geometry" />
        </mxCell>
        <mxCell id="dKdSaXE48SgPbhcamS2K-49" value="runtime" style="shape=component;align=center;fillColor=#99ffff;gradientColor=none;fontSize=15;" parent="1" vertex="1">
          <mxGeometry x="526.5" y="540" width="185" height="80" as="geometry" />
        </mxCell>
        <mxCell id="dKdSaXE48SgPbhcamS2K-47" value="JS" style="shape=component;align=center;fillColor=#99ffff;gradientColor=none;fontSize=15;" parent="1" vertex="1">
          <mxGeometry x="311.5" y="541" width="185" height="80" as="geometry" />
        </mxCell>
        <mxCell id="dKdSaXE48SgPbhcamS2K-58" value="Technology" style="text;html=1;strokeColor=none;fillColor=none;align=center;verticalAlign=middle;whiteSpace=wrap;fontSize=14;" parent="1" vertex="1">
          <mxGeometry x="1269" y="751" width="240" height="20" as="geometry" />
        </mxCell>
        <mxCell id="dKdSaXE48SgPbhcamS2K-59" value="Application" style="text;html=1;strokeColor=none;fillColor=none;align=center;verticalAlign=middle;whiteSpace=wrap;fontSize=14;" parent="1" vertex="1">
          <mxGeometry x="1269" y="541" width="240" height="20" as="geometry" />
        </mxCell>
        <mxCell id="dKdSaXE48SgPbhcamS2K-60" value="Business" style="text;html=1;strokeColor=none;fillColor=none;align=center;verticalAlign=middle;whiteSpace=wrap;fontSize=14;" parent="1" vertex="1">
          <mxGeometry x="1259" y="389" width="240" height="20" as="geometry" />
        </mxCell>
        <mxCell id="dKdSaXE48SgPbhcamS2K-61" style="edgeStyle=elbowEdgeStyle;rounded=1;elbow=vertical;html=1;dashed=1;startSize=10;endArrow=block;endFill=0;endSize=10;jettySize=auto;orthogonalLoop=1;strokeColor=#808080;fontSize=14;entryX=0;entryY=0.5;entryDx=0;entryDy=0;" parent="1" source="dKdSaXE48SgPbhcamS2K-62" target="wChZqM1H21V13JIH8exe-7" edge="1">
          <mxGeometry relative="1" as="geometry" />
        </mxCell>
        <mxCell id="dKdSaXE48SgPbhcamS2K-62" value="" style="html=1;whiteSpace=wrap;fillColor=#ffff99;shape=mxgraph.archimate3.actor;fontSize=14;" parent="1" vertex="1">
          <mxGeometry x="219" y="350" width="50" height="95" as="geometry" />
        </mxCell>
        <mxCell id="dKdSaXE48SgPbhcamS2K-63" value="Title" style="text;strokeColor=none;fillColor=none;html=1;fontSize=24;fontStyle=1;verticalAlign=middle;align=center;" parent="1" vertex="1">
          <mxGeometry x="50" y="70" width="1590" height="40" as="geometry" />
        </mxCell>
        <mxCell id="wChZqM1H21V13JIH8exe-2" value="&lt;b&gt;&lt;font style=&quot;font-size: 35px;&quot;&gt;View&lt;/font&gt;&lt;/b&gt;" style="text;html=1;strokeColor=#82b366;fillColor=#d5e8d4;align=center;verticalAlign=middle;whiteSpace=wrap;rounded=0;fontColor=#FF6726;" vertex="1" parent="1">
          <mxGeometry x="990" y="363.5" width="170" height="68" as="geometry" />
        </mxCell>
        <mxCell id="wChZqM1H21V13JIH8exe-3" value="&lt;font color=&quot;#00cc00&quot; style=&quot;font-size: 35px;&quot;&gt;V&lt;/font&gt;&lt;font style=&quot;font-size: 35px;&quot;&gt;iew&lt;/font&gt;&lt;font color=&quot;#99ff99&quot; style=&quot;font-size: 35px;&quot;&gt; &lt;/font&gt;&lt;font color=&quot;#00cc00&quot; style=&quot;font-size: 35px;&quot;&gt;M&lt;/font&gt;&lt;font style=&quot;font-size: 35px;&quot;&gt;odel&lt;/font&gt;" style="text;html=1;strokeColor=#9673a6;fillColor=#e1d5e7;align=center;verticalAlign=middle;whiteSpace=wrap;rounded=0;" vertex="1" parent="1">
          <mxGeometry x="990" y="545" width="230" height="70" as="geometry" />
        </mxCell>
        <mxCell id="wChZqM1H21V13JIH8exe-9" style="edgeStyle=orthogonalEdgeStyle;rounded=0;orthogonalLoop=1;jettySize=auto;html=1;exitX=0.5;exitY=1;exitDx=0;exitDy=0;" edge="1" parent="1" source="wChZqM1H21V13JIH8exe-7" target="wChZqM1H21V13JIH8exe-5">
          <mxGeometry relative="1" as="geometry" />
        </mxCell>
        <mxCell id="wChZqM1H21V13JIH8exe-7" value="" style="rounded=1;whiteSpace=wrap;html=1;" vertex="1" parent="1">
          <mxGeometry x="336.5" y="347" width="610" height="101" as="geometry" />
        </mxCell>
        <mxCell id="dKdSaXE48SgPbhcamS2K-54" value="HTML" style="html=1;whiteSpace=wrap;fillColor=#ffff99;shape=mxgraph.archimate3.application;appType=func;archiType=rounded;fontSize=14;" parent="1" vertex="1">
          <mxGeometry x="350" y="360" width="150" height="75" as="geometry" />
        </mxCell>
        <mxCell id="dKdSaXE48SgPbhcamS2K-55" value="CSS" style="html=1;whiteSpace=wrap;fillColor=#ffff99;shape=mxgraph.archimate3.application;appType=collab;archiType=square;fontSize=14;" parent="1" vertex="1">
          <mxGeometry x="544" y="361.5" width="150" height="75" as="geometry" />
        </mxCell>
        <mxCell id="dKdSaXE48SgPbhcamS2K-56" value="模板文件" style="html=1;whiteSpace=wrap;fillColor=#ffff99;shape=mxgraph.archimate3.application;appType=event;archiType=rounded;fontSize=14;" parent="1" vertex="1">
          <mxGeometry x="761.5" y="360" width="150" height="75" as="geometry" />
        </mxCell>
        <mxCell id="wChZqM1H21V13JIH8exe-11" value="&lt;font style=&quot;font-size: 16px;&quot;&gt;双向的数据绑定&lt;/font&gt;" style="text;html=1;strokeColor=none;fillColor=none;align=center;verticalAlign=middle;whiteSpace=wrap;rounded=0;" vertex="1" parent="1">
          <mxGeometry x="650" y="470" width="120" height="30" as="geometry" />
        </mxCell>
        <mxCell id="wChZqM1H21V13JIH8exe-12" value="" style="rounded=1;whiteSpace=wrap;html=1;" vertex="1" parent="1">
          <mxGeometry x="305" y="691" width="595" height="259" as="geometry" />
        </mxCell>
        <mxCell id="wChZqM1H21V13JIH8exe-23" style="edgeStyle=orthogonalEdgeStyle;rounded=0;orthogonalLoop=1;jettySize=auto;html=1;exitX=0.25;exitY=1;exitDx=0;exitDy=0;entryX=0.25;entryY=0;entryDx=0;entryDy=0;" edge="1" parent="1" source="wChZqM1H21V13JIH8exe-13" target="wChZqM1H21V13JIH8exe-16">
          <mxGeometry relative="1" as="geometry" />
        </mxCell>
        <mxCell id="wChZqM1H21V13JIH8exe-13" value="" style="rounded=0;whiteSpace=wrap;html=1;" vertex="1" parent="1">
          <mxGeometry x="336" y="711" width="524" height="79" as="geometry" />
        </mxCell>
        <mxCell id="wChZqM1H21V13JIH8exe-14" value="&lt;font style=&quot;font-size: 25px;&quot;&gt;Java&lt;/font&gt;" style="ellipse;whiteSpace=wrap;html=1;fillColor=#d5e8d4;strokeColor=#82b366;" vertex="1" parent="1">
          <mxGeometry x="377" y="720.5" width="96" height="60" as="geometry" />
        </mxCell>
        <mxCell id="wChZqM1H21V13JIH8exe-15" value="&lt;font style=&quot;font-size: 31px;&quot;&gt;业务逻辑处理&lt;/font&gt;" style="rounded=0;whiteSpace=wrap;html=1;fillColor=#d5e8d4;strokeColor=#82b366;" vertex="1" parent="1">
          <mxGeometry x="540" y="721" width="290" height="59" as="geometry" />
        </mxCell>
        <mxCell id="wChZqM1H21V13JIH8exe-24" style="edgeStyle=orthogonalEdgeStyle;rounded=0;orthogonalLoop=1;jettySize=auto;html=1;exitX=0.75;exitY=0;exitDx=0;exitDy=0;entryX=0.75;entryY=1;entryDx=0;entryDy=0;" edge="1" parent="1" source="wChZqM1H21V13JIH8exe-16" target="wChZqM1H21V13JIH8exe-13">
          <mxGeometry relative="1" as="geometry" />
        </mxCell>
        <mxCell id="wChZqM1H21V13JIH8exe-16" value="" style="rounded=0;whiteSpace=wrap;html=1;" vertex="1" parent="1">
          <mxGeometry x="336" y="840" width="524" height="90" as="geometry" />
        </mxCell>
        <mxCell id="wChZqM1H21V13JIH8exe-17" value="MySQL" style="shape=cylinder3;whiteSpace=wrap;html=1;boundedLbl=1;backgroundOutline=1;size=15;fillColor=#dae8fc;strokeColor=#6c8ebf;" vertex="1" parent="1">
          <mxGeometry x="390" y="845" width="60" height="80" as="geometry" />
        </mxCell>
        <mxCell id="wChZqM1H21V13JIH8exe-18" value="Orcal" style="shape=cylinder3;whiteSpace=wrap;html=1;boundedLbl=1;backgroundOutline=1;size=15;fillColor=#dae8fc;strokeColor=#6c8ebf;" vertex="1" parent="1">
          <mxGeometry x="510" y="845" width="60" height="80" as="geometry" />
        </mxCell>
        <mxCell id="wChZqM1H21V13JIH8exe-19" value="MongoDB" style="shape=cylinder3;whiteSpace=wrap;html=1;boundedLbl=1;backgroundOutline=1;size=15;fillColor=#dae8fc;strokeColor=#6c8ebf;" vertex="1" parent="1">
          <mxGeometry x="611.5" y="845" width="60" height="80" as="geometry" />
        </mxCell>
        <mxCell id="wChZqM1H21V13JIH8exe-20" value="NoSQL" style="shape=cylinder3;whiteSpace=wrap;html=1;boundedLbl=1;backgroundOutline=1;size=15;fillColor=#dae8fc;strokeColor=#6c8ebf;" vertex="1" parent="1">
          <mxGeometry x="730" y="845" width="60" height="80" as="geometry" />
        </mxCell>
        <mxCell id="wChZqM1H21V13JIH8exe-25" value="&lt;font style=&quot;font-size: 28px;&quot;&gt;CRUD&lt;/font&gt;" style="text;html=1;strokeColor=none;fillColor=none;align=center;verticalAlign=middle;whiteSpace=wrap;rounded=0;" vertex="1" parent="1">
          <mxGeometry x="527" y="805" width="113" height="25" as="geometry" />
        </mxCell>
        <mxCell id="wChZqM1H21V13JIH8exe-27" value="&lt;font style=&quot;font-size: 35px;&quot;&gt;&lt;font color=&quot;#3399ff&quot;&gt;M&lt;/font&gt;odel&lt;/font&gt;" style="rounded=0;whiteSpace=wrap;html=1;fillColor=#f8cecc;strokeColor=#b85450;" vertex="1" parent="1">
          <mxGeometry x="990" y="781" width="210" height="69" as="geometry" />
        </mxCell>
      </root>
    </mxGraphModel>
  </diagram>
</mxfile>
